<svg version="1.1" id="Layer_1" xmlns="http://www.w3.org/2000/svg" xmlns:xlink="http://www.w3.org/1999/xlink" x="0px" y="0px"
	 width="100%" viewBox="0 0 1200 630" enable-background="new 0 0 1200 630" xml:space="preserve">
<path fill="#222222" opacity="1.000000" stroke="none" 
	d="
M686.000000,631.000000 
	C457.333344,631.000000 229.166687,631.000000 1.000031,631.000000 
	C1.000021,421.000031 1.000021,211.000046 1.000010,1.000059 
	C400.999969,1.000039 800.999939,1.000039 1201.000000,1.000020 
	C1201.000000,210.999939 1201.000000,420.999878 1201.000000,630.999878 
	C1029.500000,631.000000 858.000000,631.000000 686.000000,631.000000 
M555.596924,460.078308 
	C572.830139,452.338409 587.103088,440.410706 600.845459,427.622498 
	C606.524475,432.499481 611.797607,437.317322 617.372437,441.756378 
	C629.678650,451.555450 642.693359,460.151611 658.171631,464.229095 
	C681.294678,470.320465 699.400330,460.115570 705.910583,437.179504 
	C710.040527,422.629211 709.617371,407.839966 707.494568,393.066223 
	C706.322144,384.906189 704.632019,376.820526 703.154968,368.588013 
	C704.991333,368.004395 706.564514,367.506561 708.136414,367.004517 
	C725.333801,361.511658 741.971375,354.850800 756.338989,343.561127 
	C758.820374,341.611267 761.189148,339.479462 763.391052,337.218567 
	C780.840881,319.301178 780.061768,297.669891 761.318237,280.187500 
	C751.061218,270.620514 738.926147,264.076172 726.001282,258.957123 
	C718.456482,255.968964 710.752136,253.383713 702.969604,250.562851 
	C703.183472,249.511551 703.362610,248.552460 703.574524,247.600662 
	C708.047852,227.504135 711.233582,207.338669 707.018250,186.746979 
	C701.533325,159.953796 681.484192,147.951141 655.332886,156.042160 
	C639.617920,160.904236 626.401733,170.158447 613.921082,180.548660 
	C609.489197,184.238205 605.233948,188.139908 600.962402,191.888351 
	C596.261658,187.741180 592.009827,183.742111 587.500671,180.058090 
	C573.484802,168.606812 558.728516,158.425583 540.619446,154.485077 
	C521.118286,150.241653 504.997864,158.906189 497.809875,177.470444 
	C492.818512,190.361465 492.111664,203.810532 493.578766,217.331329 
	C494.791595,228.508713 496.823181,239.597244 498.517975,250.898621 
	C492.747650,252.881866 486.723114,254.758896 480.842133,257.010803 
	C464.558685,263.245911 449.002258,270.796844 437.035278,283.983185 
	C422.181885,300.350037 421.944183,320.229462 437.599579,335.778534 
	C445.148499,343.276184 454.294922,349.633545 463.701355,354.671051 
	C474.751953,360.589111 486.870300,364.513336 498.853088,369.436829 
	C498.747620,369.993927 498.563721,371.115326 498.321228,372.223877 
	C493.921967,392.334808 490.730164,412.513031 495.037933,433.089752 
	C498.903473,451.554291 509.767944,463.210144 525.807129,465.638336 
	C536.021484,467.184692 545.612488,464.424377 555.596924,460.078308 
z"/>
<path fill="#60D7F8" opacity="1.000000" stroke="none" 
	d="
M555.246643,460.229156 
	C545.612488,464.424377 536.021484,467.184692 525.807129,465.638336 
	C509.767944,463.210144 498.903473,451.554291 495.037933,433.089752 
	C490.730164,412.513031 493.921967,392.334808 498.321228,372.223877 
	C498.563721,371.115326 498.747620,369.993927 498.853088,369.436829 
	C486.870300,364.513336 474.751953,360.589111 463.701355,354.671051 
	C454.294922,349.633545 445.148499,343.276184 437.599579,335.778534 
	C421.944183,320.229462 422.181885,300.350037 437.035278,283.983185 
	C449.002258,270.796844 464.558685,263.245911 480.842133,257.010803 
	C486.723114,254.758896 492.747650,252.881866 498.517975,250.898621 
	C496.823181,239.597244 494.791595,228.508713 493.578766,217.331329 
	C492.111664,203.810532 492.818512,190.361465 497.809875,177.470444 
	C504.997864,158.906189 521.118286,150.241653 540.619446,154.485077 
	C558.728516,158.425583 573.484802,168.606812 587.500671,180.058090 
	C592.009827,183.742111 596.261658,187.741180 600.962402,191.888351 
	C605.233948,188.139908 609.489197,184.238205 613.921082,180.548660 
	C626.401733,170.158447 639.617920,160.904236 655.332886,156.042160 
	C681.484192,147.951141 701.533325,159.953796 707.018250,186.746979 
	C711.233582,207.338669 708.047852,227.504135 703.574524,247.600662 
	C703.362610,248.552460 703.183472,249.511551 702.969604,250.562851 
	C710.752136,253.383713 718.456482,255.968964 726.001282,258.957123 
	C738.926147,264.076172 751.061218,270.620514 761.318237,280.187500 
	C780.061768,297.669891 780.840881,319.301178 763.391052,337.218567 
	C761.189148,339.479462 758.820374,341.611267 756.338989,343.561127 
	C741.971375,354.850800 725.333801,361.511658 708.136414,367.004517 
	C706.564514,367.506561 704.991333,368.004395 703.154968,368.588013 
	C704.632019,376.820526 706.322144,384.906189 707.494568,393.066223 
	C709.617371,407.839966 710.040527,422.629211 705.910583,437.179504 
	C699.400330,460.115570 681.294678,470.320465 658.171631,464.229095 
	C642.693359,460.151611 629.678650,451.555450 617.372437,441.756378 
	C611.797607,437.317322 606.524475,432.499481 600.845459,427.622498 
	C587.103088,440.410706 572.830139,452.338409 555.246643,460.229156 
M546.835999,290.360138 
	C544.076355,295.666931 541.075745,300.868500 538.687256,306.337402 
	C537.846863,308.261627 537.649292,311.320160 538.614502,313.046631 
	C547.773315,329.429199 557.287354,345.612701 566.588745,361.916443 
	C568.190308,364.723755 570.323853,365.822174 573.451111,365.811981 
	C591.915955,365.751831 610.382812,365.893707 628.843323,365.602936 
	C630.999817,365.568970 634.013306,363.829224 635.118958,361.978088 
	C644.828247,345.722351 654.273865,329.306244 663.536865,312.791443 
	C664.439514,311.182251 664.354492,308.159027 663.433167,306.519989 
	C654.154968,290.013702 644.694763,273.606812 635.002197,257.340881 
	C633.988098,255.639023 631.163635,254.077332 629.158081,254.050934 
	C610.369812,253.803619 591.575623,253.803589 572.787415,254.055496 
	C570.789368,254.082275 568.053528,255.684326 566.960754,257.389282 
	C560.145935,268.022156 553.701538,278.892456 546.835999,290.360138 
M493.018982,268.450073 
	C479.311981,273.236206 465.932220,278.711243 454.469238,287.901093 
	C436.415985,302.374298 436.443024,317.495239 454.712067,331.809662 
	C468.953644,342.968414 485.642670,348.971283 503.099518,354.175110 
	C504.713776,349.532013 506.175873,345.166016 507.750671,340.841064 
	C509.399170,336.313721 510.544525,331.459778 512.980957,327.389771 
	C520.073303,315.541962 519.961304,304.391449 513.143005,292.203827 
	C508.598846,284.081207 506.355560,274.671356 502.942566,265.459991 
	C499.754761,266.399750 496.760254,267.282532 493.018982,268.450073 
M513.352295,373.674835 
	C512.029663,380.362091 510.395538,387.005615 509.449951,393.745758 
	C507.545898,407.317596 506.506439,420.946838 510.815521,434.313416 
	C515.264954,448.115448 524.445801,453.546600 538.508423,450.165710 
	C559.598022,445.095459 574.955566,430.996002 590.145752,417.076996 
	C581.738281,406.565399 573.356628,396.646637 565.664551,386.219238 
	C562.116577,381.409515 558.519409,378.441620 552.265442,378.742645 
	C548.672913,378.915558 545.014038,377.898743 541.397095,377.339569 
	C532.230408,375.922516 523.070496,374.461456 513.352295,373.674835 
M738.398621,337.940125 
	C744.431152,332.779266 751.210693,328.257965 756.311951,322.299774 
	C763.071106,314.405273 762.818542,305.243439 756.347900,297.101105 
	C752.676270,292.480865 748.355042,287.741150 743.276306,285.002686 
	C731.482971,278.643646 719.080627,273.404144 706.856628,267.862030 
	C704.377686,266.738129 701.596863,266.279907 699.425964,265.651123 
	C693.608826,280.131317 688.021118,293.982941 682.515320,307.867096 
	C682.123230,308.855682 681.946899,310.234924 682.319153,311.175812 
	C687.927185,325.350159 693.644043,339.481415 699.477173,353.975098 
	C712.618530,350.173492 725.659546,345.413452 738.398621,337.940125 
M691.028687,384.529785 
	C690.182800,380.663269 689.336914,376.796722 688.503418,372.986755 
	C687.620300,372.893005 687.122498,372.735504 686.659546,372.806152 
	C672.358826,374.989288 658.055298,377.156250 643.773987,379.460205 
	C642.442444,379.675018 640.881348,380.481384 640.056763,381.515381 
	C630.727844,393.213715 621.521851,405.010132 611.968506,417.180847 
	C614.836792,419.796692 617.937500,422.788361 621.209534,425.579132 
	C633.039795,435.669250 645.353149,445.050232 660.563599,449.533905 
	C677.118042,454.413696 687.916687,448.193848 692.030762,431.453186 
	C695.817444,416.045166 693.961792,400.692566 691.028687,384.529785 
M511.776398,238.657745 
	C512.364014,241.376221 512.951599,244.094696 513.465088,246.470566 
	C529.065979,244.253906 544.177185,242.171463 559.251953,239.851944 
	C560.570496,239.649078 561.839905,238.041321 562.808838,236.827972 
	C569.345886,228.641953 575.755188,220.353973 582.293762,212.169266 
	C584.841980,208.979492 587.617798,205.971542 590.829041,202.257233 
	C582.232056,195.367554 574.476135,188.220932 565.793213,182.475113 
	C558.257202,177.488235 550.022095,173.020584 541.475403,170.212250 
	C524.754456,164.717972 514.018738,171.305328 509.906891,188.386871 
	C505.910522,204.988953 508.370972,221.440338 511.776398,238.657745 
M669.703613,168.415024 
	C645.282227,171.310898 628.791809,187.377975 611.671509,202.508453 
	C618.672791,211.022079 625.976013,218.476105 631.542358,227.056885 
	C637.589661,236.379059 644.615601,241.437973 656.188843,241.808243 
	C666.856934,242.149567 677.444824,244.998505 688.626953,246.834656 
	C689.958862,239.796844 691.560730,232.849655 692.543823,225.815964 
	C694.462830,212.086319 695.486816,198.311539 691.085999,184.799255 
	C687.852722,174.871796 681.644775,168.504791 669.703613,168.415024 
M616.406372,387.893158 
	C617.973633,385.862091 619.540894,383.831024 621.372803,381.457031 
	C607.446350,381.457031 594.343872,381.457031 580.257202,381.457031 
	C587.409851,389.982758 593.967651,397.799377 600.983398,406.161926 
	C606.354614,399.812866 611.158936,394.133942 616.406372,387.893158 
M656.741638,356.235870 
	C655.460693,358.313812 654.179688,360.391754 652.105286,363.756836 
	C663.629272,361.753448 673.812500,359.983154 684.680603,358.093781 
	C680.806030,347.601929 677.234009,337.929443 673.361877,327.444366 
	C667.531921,337.528778 662.311523,346.558777 656.741638,356.235870 
M545.254272,356.258606 
	C539.902588,346.969238 534.550903,337.679871 528.609558,327.367096 
	C524.713623,338.023010 521.171570,347.710815 517.353943,358.152435 
	C528.320496,360.024292 538.447632,361.752869 549.777405,363.686707 
	C547.870361,360.512054 546.774048,358.687103 545.254272,356.258606 
M544.068176,256.845032 
	C535.444214,258.293732 526.820251,259.742432 517.307983,261.340332 
	C521.182556,271.821808 524.778259,281.548828 528.660828,292.052002 
	C535.914978,279.452179 542.497925,268.018188 549.352783,256.111938 
	C547.472900,256.369812 546.180542,256.547119 544.068176,256.845032 
M680.527771,273.004517 
	C681.742065,269.293915 682.956360,265.583313 684.356567,261.304535 
	C673.546509,259.447266 663.413452,257.706329 652.459839,255.824402 
	C659.616333,268.223602 666.195801,279.623138 673.312073,291.952667 
	C675.817505,285.340179 678.017334,279.534027 680.527771,273.004517 
M617.895264,238.229355 
	C618.789185,238.177139 619.683105,238.124924 621.687317,238.007843 
	C614.467590,229.408020 607.923767,221.613266 600.949280,213.305557 
	C593.865540,221.828873 587.368713,229.645996 580.425415,238.000320 
	C587.407349,238.000320 593.221313,237.973831 599.034851,238.007645 
	C605.026184,238.042496 611.017212,238.136093 617.895264,238.229355 
z"/>
<path fill="#232424" opacity="1.000000" stroke="none" 
	d="
M546.985168,290.022095 
	C553.701538,278.892456 560.145935,268.022156 566.960754,257.389282 
	C568.053528,255.684326 570.789368,254.082275 572.787415,254.055496 
	C591.575623,253.803589 610.369812,253.803619 629.158081,254.050934 
	C631.163635,254.077332 633.988098,255.639023 635.002197,257.340881 
	C644.694763,273.606812 654.154968,290.013702 663.433167,306.519989 
	C664.354492,308.159027 664.439514,311.182251 663.536865,312.791443 
	C654.273865,329.306244 644.828247,345.722351 635.118958,361.978088 
	C634.013306,363.829224 630.999817,365.568970 628.843323,365.602936 
	C610.382812,365.893707 591.915955,365.751831 573.451111,365.811981 
	C570.323853,365.822174 568.190308,364.723755 566.588745,361.916443 
	C557.287354,345.612701 547.773315,329.429199 538.614502,313.046631 
	C537.649292,311.320160 537.846863,308.261627 538.687256,306.337402 
	C541.075745,300.868500 544.076355,295.666931 546.985168,290.022095 
M574.866943,292.487946 
	C574.138000,293.792816 573.327209,295.059235 572.692749,296.408569 
	C566.671326,309.215790 569.978699,324.539246 580.699280,333.644287 
	C591.449219,342.774261 607.164246,343.596680 618.728821,335.634552 
	C630.503845,327.527466 635.404663,312.367554 630.332581,298.949677 
	C626.111145,287.782074 617.995911,280.899628 606.195496,278.949921 
	C593.319641,276.822479 583.047729,281.533081 574.866943,292.487946 
z"/>
<path fill="#222323" opacity="1.000000" stroke="none" 
	d="
M493.392395,268.307678 
	C496.760254,267.282532 499.754761,266.399750 502.942566,265.459991 
	C506.355560,274.671356 508.598846,284.081207 513.143005,292.203827 
	C519.961304,304.391449 520.073303,315.541962 512.980957,327.389771 
	C510.544525,331.459778 509.399170,336.313721 507.750671,340.841064 
	C506.175873,345.166016 504.713776,349.532013 503.099518,354.175110 
	C485.642670,348.971283 468.953644,342.968414 454.712067,331.809662 
	C436.443024,317.495239 436.415985,302.374298 454.469238,287.901093 
	C465.932220,278.711243 479.311981,273.236206 493.392395,268.307678 
z"/>
<path fill="#222324" opacity="1.000000" stroke="none" 
	d="
M513.630127,373.346436 
	C523.070496,374.461456 532.230408,375.922516 541.397095,377.339569 
	C545.014038,377.898743 548.672913,378.915558 552.265442,378.742645 
	C558.519409,378.441620 562.116577,381.409515 565.664551,386.219238 
	C573.356628,396.646637 581.738281,406.565399 590.145752,417.076996 
	C574.955566,430.996002 559.598022,445.095459 538.508423,450.165710 
	C524.445801,453.546600 515.264954,448.115448 510.815521,434.313416 
	C506.506439,420.946838 507.545898,407.317596 509.449951,393.745758 
	C510.395538,387.005615 512.029663,380.362091 513.630127,373.346436 
z"/>
<path fill="#222323" opacity="1.000000" stroke="none" 
	d="
M738.075012,338.108826 
	C725.659546,345.413452 712.618530,350.173492 699.477173,353.975098 
	C693.644043,339.481415 687.927185,325.350159 682.319153,311.175812 
	C681.946899,310.234924 682.123230,308.855682 682.515320,307.867096 
	C688.021118,293.982941 693.608826,280.131317 699.425964,265.651123 
	C701.596863,266.279907 704.377686,266.738129 706.856628,267.862030 
	C719.080627,273.404144 731.482971,278.643646 743.276306,285.002686 
	C748.355042,287.741150 752.676270,292.480865 756.347900,297.101105 
	C762.818542,305.243439 763.071106,314.405273 756.311951,322.299774 
	C751.210693,328.257965 744.431152,332.779266 738.075012,338.108826 
z"/>
<path fill="#222324" opacity="1.000000" stroke="none" 
	d="
M691.085449,384.956879 
	C693.961792,400.692566 695.817444,416.045166 692.030762,431.453186 
	C687.916687,448.193848 677.118042,454.413696 660.563599,449.533905 
	C645.353149,445.050232 633.039795,435.669250 621.209534,425.579132 
	C617.937500,422.788361 614.836792,419.796692 611.968506,417.180847 
	C621.521851,405.010132 630.727844,393.213715 640.056763,381.515381 
	C640.881348,380.481384 642.442444,379.675018 643.773987,379.460205 
	C658.055298,377.156250 672.358826,374.989288 686.659546,372.806152 
	C687.122498,372.735504 687.620300,372.893005 688.503418,372.986755 
	C689.336914,376.796722 690.182800,380.663269 691.085449,384.956879 
z"/>
<path fill="#222323" opacity="1.000000" stroke="none" 
	d="
M511.668945,238.247070 
	C508.370972,221.440338 505.910522,204.988953 509.906891,188.386871 
	C514.018738,171.305328 524.754456,164.717972 541.475403,170.212250 
	C550.022095,173.020584 558.257202,177.488235 565.793213,182.475113 
	C574.476135,188.220932 582.232056,195.367554 590.829041,202.257233 
	C587.617798,205.971542 584.841980,208.979492 582.293762,212.169266 
	C575.755188,220.353973 569.345886,228.641953 562.808838,236.827972 
	C561.839905,238.041321 560.570496,239.649078 559.251953,239.851944 
	C544.177185,242.171463 529.065979,244.253906 513.465088,246.470566 
	C512.951599,244.094696 512.364014,241.376221 511.668945,238.247070 
z"/>
<path fill="#222323" opacity="1.000000" stroke="none" 
	d="
M670.115234,168.387314 
	C681.644775,168.504791 687.852722,174.871796 691.085999,184.799255 
	C695.486816,198.311539 694.462830,212.086319 692.543823,225.815964 
	C691.560730,232.849655 689.958862,239.796844 688.626953,246.834656 
	C677.444824,244.998505 666.856934,242.149567 656.188843,241.808243 
	C644.615601,241.437973 637.589661,236.379059 631.542358,227.056885 
	C625.976013,218.476105 618.672791,211.022079 611.671509,202.508453 
	C628.791809,187.377975 645.282227,171.310898 670.115234,168.387314 
z"/>
<path fill="#24292A" opacity="1.000000" stroke="none" 
	d="
M616.184814,388.174103 
	C611.158936,394.133942 606.354614,399.812866 600.983398,406.161926 
	C593.967651,397.799377 587.409851,389.982758 580.257202,381.457031 
	C594.343872,381.457031 607.446350,381.457031 621.372803,381.457031 
	C619.540894,383.831024 617.973633,385.862091 616.184814,388.174103 
z"/>
<path fill="#242727" opacity="1.000000" stroke="none" 
	d="
M656.916382,355.912323 
	C662.311523,346.558777 667.531921,337.528778 673.361877,327.444366 
	C677.234009,337.929443 680.806030,347.601929 684.680603,358.093781 
	C673.812500,359.983154 663.629272,361.753448 652.105286,363.756836 
	C654.179688,360.391754 655.460693,358.313812 656.916382,355.912323 
z"/>
<path fill="#242727" opacity="1.000000" stroke="none" 
	d="
M545.466064,356.560364 
	C546.774048,358.687103 547.870361,360.512054 549.777405,363.686707 
	C538.447632,361.752869 528.320496,360.024292 517.353943,358.152435 
	C521.171570,347.710815 524.713623,338.023010 528.609558,327.367096 
	C534.550903,337.679871 539.902588,346.969238 545.466064,356.560364 
z"/>
<path fill="#242627" opacity="1.000000" stroke="none" 
	d="
M544.478149,256.784729 
	C546.180542,256.547119 547.472900,256.369812 549.352783,256.111938 
	C542.497925,268.018188 535.914978,279.452179 528.660828,292.052002 
	C524.778259,281.548828 521.182556,271.821808 517.307983,261.340332 
	C526.820251,259.742432 535.444214,258.293732 544.478149,256.784729 
z"/>
<path fill="#242627" opacity="1.000000" stroke="none" 
	d="
M680.372498,273.366211 
	C678.017334,279.534027 675.817505,285.340179 673.312073,291.952667 
	C666.195801,279.623138 659.616333,268.223602 652.459839,255.824402 
	C663.413452,257.706329 673.546509,259.447266 684.356567,261.304535 
	C682.956360,265.583313 681.742065,269.293915 680.372498,273.366211 
z"/>
<path fill="#232525" opacity="1.000000" stroke="none" 
	d="
M617.451782,238.216675 
	C611.017212,238.136093 605.026184,238.042496 599.034851,238.007645 
	C593.221313,237.973831 587.407349,238.000320 580.425415,238.000320 
	C587.368713,229.645996 593.865540,221.828873 600.949280,213.305557 
	C607.923767,221.613266 614.467590,229.408020 621.687317,238.007843 
	C619.683105,238.124924 618.789185,238.177139 617.451782,238.216675 
z"/>
<path fill="#61D9F9" opacity="1.000000" stroke="none" 
	d="
M575.054810,292.174927 
	C583.047729,281.533081 593.319641,276.822479 606.195496,278.949921 
	C617.995911,280.899628 626.111145,287.782074 630.332581,298.949677 
	C635.404663,312.367554 630.503845,327.527466 618.728821,335.634552 
	C607.164246,343.596680 591.449219,342.774261 580.699280,333.644287 
	C569.978699,324.539246 566.671326,309.215790 572.692749,296.408569 
	C573.327209,295.059235 574.138000,293.792816 575.054810,292.174927 
z"/>
</svg>